<svg xmlns="http://www.w3.org/2000/svg" height="800" width="1200" viewBox="-18.8487 -7.396 163.3554 44.376"><path d="M.315 29.3475h1.7312l2.4788-2.3987c2.2025 1.7687 4.9962 2.635 7.8275 2.635 2.5175 0 5.2325-.5513 7.2387-2.1638 2.125-1.77 3.3038-4.2875 3.3038-7.0025 0-6.885-5.3488-8.5362-11.0138-9.7175l-2.4787-.4712C7.12 9.7563 4.525 8.97 4.525 6.1375c0-2.8712 2.91-4.0925 5.3887-4.0925 4.8775 0 8.3013 4.2888 9.7563 8.4988h1.9675L21.1262.2363h-1.6925L17.31 2.1638C15.225.7088 12.9425 0 10.425 0 4.8387 0 0 2.9113 0 8.97c0 2.5563 1.2987 4.9963 3.3437 6.4913 2.44 1.8087 4.9175 2.36 7.8288 2.9112l2.8325.55c2.36.4325 4.21 1.495 4.21 4.13 0 3.1875-2.9513 4.485-5.705 4.485-5.2713 0-9.0088-4.7987-10.5825-9.2837H0z" fill="#008ac9"/><path d="M.315 29.3475h1.7312l2.4788-2.3987c2.2025 1.7687 4.9962 2.635 7.8275 2.635 2.5175 0 5.2325-.5513 7.2387-2.1638 2.125-1.77 3.3038-4.2875 3.3038-7.0025 0-6.885-5.3488-8.5362-11.0138-9.7175l-2.4787-.4712C7.12 9.7563 4.525 8.97 4.525 6.1375c0-2.8712 2.91-4.0925 5.3887-4.0925 4.8775 0 8.3013 4.2888 9.7563 8.4975h1.9675L21.1262.2363h-1.6925L17.31 2.1638C15.225.7088 12.9425 0 10.425 0 4.8387 0 0 2.9113 0 8.97c0 2.5563 1.2987 4.9963 3.3437 6.4913 2.44 1.8087 4.9188 2.36 7.83 2.9112l2.8313.55c2.36.4325 4.21 1.495 4.21 4.13 0 3.1875-2.9513 4.485-5.705 4.485-5.2713 0-9.0088-4.7987-10.5825-9.2837H0z" fill="none"/><path d="M36.6286 22.1095c0 4.0525-2.4 4.9175-3.7362 4.9175-1.7313 0-2.5975-1.1412-2.5975-2.7537 0-2.9125 2.0062-3.6588 6.3337-4.6025zm.0788-4.4062c-3.855.865-12.8637 1.73-12.8637 7.16 0 1.8087.7075 2.99 1.81 3.6987 1.1012.7463 2.635 1.0213 4.2087 1.0213 2.7138 0 5.665-.865 7.6313-2.7138.59 1.81 2.6362 2.7138 4.2487 2.7138 1.6925 0 4.1713-1.3763 4.1713-3.1075 0-.7088-.4338-.63-.59-.63-.7088 0-1.1413.5912-1.4175.5912-.7863 0-1.18-.355-1.18-2.7937v-7.71c0-1.5738-.1963-6.02-8.8913-6.02-5.9 0-8.9287 2.3612-8.9287 4.9575 0 1.77 1.3375 2.95 3.0675 2.95 1.535 0 3.2262-.7863 3.2262-2.5563 0-1.0625-.9837-1.7712-.9837-2.2825 0-.3537 1.1025-1.1012 3.3437-1.1012 3.03 0 3.1475 2.2825 3.1475 4.9962z" fill="#008ac9" fill-rule="evenodd"/><path d="M36.6286 22.1095c0 4.0525-2.4 4.9175-3.7362 4.9175-1.7313 0-2.5975-1.1412-2.5975-2.7537 0-2.9125 2.0062-3.6588 6.3337-4.6025zm.0788-4.4062c-3.855.865-12.8637 1.73-12.8637 7.16 0 1.8087.7075 2.99 1.81 3.6987 1.1012.7463 2.635 1.0213 4.2087 1.0213 2.7138 0 5.665-.865 7.6313-2.7138.59 1.81 2.6362 2.7138 4.2487 2.7138 1.6925 0 4.1713-1.3763 4.1713-3.1075 0-.7088-.4338-.63-.59-.63-.7088 0-1.1413.5912-1.4163.5912-.7875 0-1.1812-.355-1.1812-2.7937v-7.71c0-1.5738-.1963-6.02-8.8913-6.02-5.9 0-8.9287 2.3612-8.9287 4.9575 0 1.77 1.3375 2.95 3.0675 2.95 1.535 0 3.2262-.7863 3.2262-2.5563 0-1.0625-.9837-1.7712-.9837-2.2825 0-.3537 1.1025-1.1012 3.3437-1.1012 3.03 0 3.1475 2.2812 3.1475 4.9962z" fill="none"/><path d="M45.982 28.9935h11.96v-1.9662h-1.6925c-.4712 0-.9437-.2375-1.0612-.7488v-6.4512c0-1.4163.0788-2.7538.7075-4.0513.6687-1.3775 1.9675-2.3612 3.5012-2.3612.7863 0 1.5338.3937 2.045.905.7475.7475.7475 1.6912.8263 2.675v8.1837c0 .3925 0 .7463-.1175 1.14-.0387.1188-.0788.2363-.1575.3538-.7088.5112-1.6913.2762-2.4775.355v1.9662H71.317v-1.9662c-.275 0-2.045.0388-2.675-.2763-.2362-.1962-.275-.3937-.275-.7075v-7.8687c0-2.045.1163-4.0513-1.0625-5.8225-1.22-1.8088-3.4225-2.4388-5.4687-2.4388-2.9888 0-5.2713 1.6138-6.6875 3.9738h-.0788v-3.58l-9.245.3937v2.0063h.7475c2.2037.0788 2.5175.2362 2.5175 2.4775v9.875c0 .6287.1187 1.5737-.6688 1.77-.7862.1575-1.6125.1575-2.4387.1975v1.9662z" fill="#008ac9"/><path d="M45.982 28.9935h11.96v-1.9662h-1.6925c-.4712 0-.9437-.2363-1.0612-.7488v-6.4512c0-1.4163.0788-2.7538.7075-4.0513.6687-1.3775 1.9675-2.3612 3.5012-2.3612.7863 0 1.5338.3937 2.045.905.7475.7475.7475 1.6925.8263 2.675v8.1837c0 .3925 0 .7463-.1175 1.14-.0387.1188-.0788.2363-.1575.3538-.7088.5112-1.6913.2762-2.4775.355v1.9662H71.317v-1.9662c-.275 0-2.045.0388-2.675-.2763-.2362-.1962-.275-.3937-.275-.7075v-7.8687c0-2.045.1163-4.0513-1.0625-5.8225-1.22-1.8088-3.4225-2.4388-5.4687-2.4388-2.9888 0-5.2713 1.6138-6.6875 3.9738h-.0788v-3.58l-9.245.3937v2.0063h.7475c2.2037.0788 2.5175.2362 2.5175 2.4787v9.8738c0 .6287.1187 1.5737-.6688 1.77-.7862.1575-1.6125.1575-2.4387.1975v1.9662z" fill="none"/><path d="M73.8607 12.6678v7.5137c0 1.2588-.04 2.5575.0789 3.855.0787 1.3375.1574 2.8725 1.1012 3.9338 1.1412 1.2587 2.8325 1.6137 4.445 1.6137 4.6812 0 6.61-3.1862 6.61-7.515v-.3137h-2.0063c.0387 1.4562-.4725 4.72-2.5575 4.72-.7875 0-1.2587-.3538-1.4562-1.14-.1175-.5513-.1175-1.1013-.1175-1.6913V12.6678h5.1925v-2.36h-5.1925V2.4403h-2.4c-.6688 4.0512-1.8088 7.5125-6.4913 8.1425v2.085h2.7938z" fill="#008ac9"/><path d="M73.8607 12.6678v7.5137c0 1.2588-.04 2.5575.0789 3.855.0787 1.3375.1574 2.8725 1.1012 3.9338 1.1412 1.2587 2.8325 1.6137 4.445 1.6137 4.6812 0 6.61-3.1862 6.61-7.515v-.3137h-2.0063c.0387 1.4562-.4725 4.72-2.5575 4.72-.7875 0-1.2587-.3538-1.4562-1.14-.1175-.5513-.1175-1.1013-.1175-1.6913V12.6678h5.1925v-2.36h-5.1925V2.4403h-2.4c-.6688 4.0512-1.8088 7.5125-6.4913 8.1425v2.085h2.7938z" fill="none"/><path d="M96.9878 11.881c3.855 0 4.1312 5.075 4.1312 7.8675 0 2.44-.2375 7.8688-3.6987 7.8688-4.1688 0-4.3263-4.8-4.3263-7.8288 0-2.5175.2737-7.9075 3.8937-7.9075m.1963 17.7025c5.705 0 10.7-3.855 10.7-9.795 0-5.8225-4.9562-9.875-10.66-9.875-2.8725 0-5.2725.7875-7.475 2.5575-2.1237 1.6913-3.4225 4.4063-3.4225 7.12 0 6.0975 4.9175 9.9925 10.8575 9.9925" fill="#008ac9" fill-rule="evenodd"/><path d="M96.9878 11.881c3.855 0 4.1312 5.075 4.1312 7.8675 0 2.44-.2375 7.8688-3.6987 7.8688-4.1688 0-4.3263-4.8-4.3263-7.8288 0-2.5175.2737-7.9075 3.8937-7.9075zm.1962 17.7025c5.705 0 10.7-3.855 10.7-9.795 0-5.8225-4.9562-9.875-10.66-9.875-2.8725 0-5.2725.7875-7.475 2.5575-2.1237 1.6913-3.4225 4.4063-3.4225 7.12 0 6.0975 4.9175 9.9925 10.8575 9.9925z" fill="none"/><path d="M112.1243 28.2463c1.3775.865 3.9337 1.3375 5.5475 1.3375.8262 0 2.085-.1963 2.8712-.3938 1.6525-.4712 2.44-.8262 3.6188-2.085 1.0625-1.14 1.4962-2.7137 1.4962-4.17 0-2.0062-1.0237-3.7375-2.755-4.6812-1.2987-.7075-2.91-1.0613-4.3662-1.4163l-1.8488-.4725c-1.14-.275-3.3437-.51-3.3437-2.0837 0-1.85 1.8875-2.4 3.4625-2.4 2.7125 0 4.6412 1.9662 5.9387 4.13.1575.1187.1575.315.2763.4325h1.7312l-.1575-6.1363h-1.5737l-1.495.905c-1.3375-.7875-3.1875-1.2987-4.76-1.2987-3.8563 0-7.6713 2.0062-7.6713 6.255 0 1.7312.4725 2.99 1.7313 4.1312 1.415 1.2975 2.635 1.6125 4.445 2.0063l2.4775.5112c1.9287.4325 4.1312 1.0225 3.1087 3.58-.7475.9838-2.0462 1.2588-3.2262 1.2588-3.5 0-5.665-2.5175-7.08-5.3888h-1.7313l.1963 6.7263h1.535z" fill="#008ac9"/><path d="M112.1243 28.2463c1.3775.865 3.9337 1.3375 5.5475 1.3375.8262 0 2.085-.1963 2.8712-.3938 1.6525-.4712 2.44-.8262 3.6188-2.085 1.0625-1.14 1.4962-2.7137 1.4962-4.17 0-2.0062-1.0237-3.7375-2.755-4.6812-1.2987-.7075-2.91-1.0613-4.3662-1.4163l-1.8488-.4725c-1.14-.275-3.3437-.51-3.3437-2.0837 0-1.85 1.8875-2.4 3.4625-2.4 2.7125 0 4.6412 1.9662 5.9387 4.13.1575.1187.1575.315.2763.4325h1.7312l-.1575-6.1363h-1.5737l-1.495.905c-1.3375-.7875-3.1875-1.2987-4.76-1.2987-3.8563 0-7.6713 2.0062-7.6713 6.255 0 1.7312.4725 2.99 1.7313 4.1312 1.415 1.2975 2.635 1.6125 4.445 2.0063l2.4775.5112c1.9287.4325 4.1312 1.0225 3.1087 3.58-.7475.9838-2.0462 1.2588-3.2262 1.2588-3.5 0-5.665-2.5175-7.08-5.3888h-1.7313l.1963 6.7263h1.535z" fill="none"/></svg>